<svg width="254" height="30" viewBox="0 0 254 30" fill="none" xmlns="http://www.w3.org/2000/svg">
<path d="M42.4177 29.5092V0H50.8003V11.1247H50.9639C52.0679 8.07773 54.3782 6.44174 57.7927 6.44174C62.7609 6.44174 65.5418 9.59102 65.5418 15.0103V29.5092H57.1588V16.8507C57.1588 14.5808 56.0957 13.1902 53.9898 13.1902C52.0066 13.1902 50.8003 14.7239 50.8003 16.8303V29.5092H42.4177ZM73.8442 29.7955C69.2847 29.7955 66.177 26.8507 66.177 22.9652V22.9448C66.177 18.589 69.5301 16.1963 75.5407 15.7873L80.284 15.4806V14.5603C80.284 13.2515 79.4459 12.4335 77.7285 12.4335C76.0111 12.4335 75.05 13.1902 74.8662 14.1105L74.8256 14.3149H67.3423L67.3625 14.0491C67.7106 9.44791 71.6152 6.44174 78.1989 6.44174C84.4758 6.44174 88.667 9.57054 88.667 14.1513V29.5092H80.284V26.4417H80.1205C78.8532 28.589 76.7471 29.7955 73.8442 29.7955ZM74.3552 22.3517C74.3552 23.5378 75.3569 24.1718 76.9107 24.1718C78.9147 24.1718 80.284 23.0675 80.284 21.5747V20.1432L76.931 20.3886C75.1527 20.5113 74.3552 21.2066 74.3552 22.3313V22.3517ZM90.1613 29.5092V6.93254H98.5436V11.1247H98.7071C99.8115 8.07773 102.122 6.44174 105.536 6.44174C110.504 6.44174 113.285 9.59102 113.285 15.0103V29.5092H104.902V16.8507C104.902 14.5808 103.839 13.1902 101.733 13.1902C99.75 13.1902 98.5436 14.7239 98.5436 16.8303V29.5092H90.1613ZM122.896 30C117.294 30 114.084 25.7464 114.084 18.2209V18.2005C114.084 10.6339 117.253 6.44174 122.937 6.44174C126.167 6.44174 128.58 8.13912 129.643 11.0021H129.806V0H138.189V29.5092H129.806V25.6442H129.643C128.62 28.364 126.167 30 122.896 30ZM126.188 23.2515C128.396 23.2515 129.806 21.3906 129.806 18.2413V18.2209C129.806 15.0511 128.375 13.1902 126.188 13.1902C124.02 13.1902 122.589 15.0511 122.589 18.2005V18.2209C122.589 21.3293 124 23.2515 126.188 23.2515ZM150.151 30C143.036 30 139.315 26.953 138.804 22.454L138.783 22.2699H146.88L146.92 22.4335C147.247 23.7423 148.27 24.5194 150.151 24.5194C151.766 24.5194 152.768 23.9673 152.768 23.0675V23.047C152.768 22.229 152.094 21.7587 150.233 21.4111L146.144 20.6544C141.666 19.8364 139.294 17.4438 139.294 13.9469V13.9264C139.294 9.24334 143.281 6.44174 149.844 6.44174C156.837 6.44174 160.394 9.91822 160.394 14.0287V14.1718H152.788L152.768 13.9877C152.645 12.9243 151.643 11.9223 149.844 11.9223C148.311 11.9223 147.309 12.4949 147.309 13.4561V13.4765C147.309 14.2741 147.881 14.7239 149.926 15.1125L154.015 15.8691C158.881 16.7689 161.069 18.6708 161.069 22.0859V22.1064C161.069 26.9734 156.694 30 150.151 30ZM161.745 29.5092V0H170.128V11.1247H170.292C171.395 8.07773 173.706 6.44174 177.12 6.44174C182.088 6.44174 184.869 9.59102 184.869 15.0103V29.5092H176.487V16.8507C176.487 14.5808 175.424 13.1902 173.318 13.1902C171.334 13.1902 170.128 14.7239 170.128 16.8303V29.5092H161.745ZM193.171 29.7955C188.612 29.7955 185.504 26.8507 185.504 22.9652V22.9448C185.504 18.589 188.857 16.1963 194.869 15.7873L199.612 15.4806V14.5603C199.612 13.2515 198.774 12.4335 197.056 12.4335C195.339 12.4335 194.378 13.1902 194.194 14.1105L194.153 14.3149H186.67L186.69 14.0491C187.038 9.44791 190.943 6.44174 197.526 6.44174C203.803 6.44174 207.994 9.57054 207.994 14.1513V29.5092H199.612V26.4417H199.448C198.18 28.589 196.075 29.7955 193.171 29.7955ZM193.682 22.3517C193.682 23.5378 194.685 24.1718 196.239 24.1718C198.242 24.1718 199.612 23.0675 199.612 21.5747V20.1432L196.259 20.3886C194.48 20.5113 193.682 21.2066 193.682 22.3313V22.3517ZM209.591 29.5092V0H217.974V15.0921H218.137L223.616 6.93254H232.838L225.334 16.5645L233.369 29.5092H223.739L219.057 21.5951L217.974 23.0061V29.5092H209.591ZM242.734 30C235.415 30 230.958 25.5624 230.958 18.2209V18.2005C230.958 10.8589 235.415 6.44174 242.469 6.44174C249.502 6.44174 254 10.8589 254 17.7301V20.1023H239.136C239.218 22.6994 240.608 24.2331 242.898 24.2331C245.106 24.2331 246.19 22.9039 246.415 22.2495L246.435 22.1881H253.898L253.836 22.454C253.162 25.3988 250.585 30 242.734 30ZM242.694 12.2086C240.874 12.2086 239.606 13.3538 239.238 15.3579H246.149C245.781 13.3538 244.513 12.2086 242.694 12.2086Z" fill="black"/>
<path d="M19.6495 29.475C18.5453 29.3162 13.19 24.6234 2.41126 15.1487C1.00746 13.4819 0.432446 12.4673 0.0733418 10.4046C-0.126313 5.20361 0.157763 3.77108 0.0421358 1.10343C0.0064065 0.154881 0.7772 -0.171662 1.44489 0.229483L11.0772 6.72156L7.21177 10.4046C6.47388 11.2517 6.6145 13.1655 8.36515 14.4621C9.83912 15.3137 12.8354 15.3391 14.1009 14.4621L16.9998 12.1524L28.3154 21.1102C29.3479 22.203 27.5605 23.7063 26.5697 23.0453C26.5697 23.0453 20.0859 17.5209 19.4001 17.2087C18.7143 16.8966 17.5533 17.0965 18.0597 18.5508C20.8438 21.0474 23.0497 22.3847 25.4476 24.7308C26.2789 25.7979 24.8966 27.2945 23.7331 26.4474L16.2206 20.4548C15.2666 19.8732 14.5669 20.9915 14.9113 21.7657C17.6677 23.9717 19.359 25.2279 21.7381 27.3838C22.37 28.213 21.5977 29.7584 19.6495 29.475Z" fill="black"/>
<path d="M18.1844 10.4981L28.596 18.5508C32.7338 14.9851 34.7213 13.0722 34.6746 10.5918V0.978564C34.6769 0.427435 33.8342 0.0108461 33.3342 0.323124L24.2942 6.50305H23.2656C19.8805 4.48692 17.5989 4.12693 15.3789 5.81638L9.11329 11.497C8.04712 12.6205 11.024 13.6939 12.9787 12.6206L15.8777 10.4046C16.8259 9.69174 17.3201 9.88276 18.1844 10.4981Z" fill="black"/>
</svg>
