<svg width="389" height="46" viewBox="0 0 389 46" fill="none" xmlns="http://www.w3.org/2000/svg">
<path d="M64.8338 45.0938V0H77.6463V17H77.8963C79.5838 12.3438 83.115 9.8438 88.3338 9.8438C95.9275 9.8438 100.178 14.6563 100.178 22.9376V45.0938H87.365V25.75C87.365 22.2813 85.74 20.1563 82.5213 20.1563C79.49 20.1563 77.6463 22.5 77.6463 25.7188V45.0938H64.8338ZM112.868 45.5313C105.899 45.5313 101.149 41.0313 101.149 35.0938V35.0626C101.149 28.4063 106.274 24.75 115.461 24.125L122.711 23.6563V22.25C122.711 20.25 121.43 19 118.805 19C116.18 19 114.711 20.1563 114.43 21.5626L114.368 21.875H102.93L102.961 21.4688C103.493 14.4376 109.461 9.8438 119.524 9.8438C129.118 9.8438 135.524 14.625 135.524 21.625V45.0938H122.711V40.4063H122.461C120.524 43.6876 117.305 45.5313 112.868 45.5313ZM113.649 34.1563C113.649 35.9688 115.18 36.9376 117.555 36.9376C120.618 36.9376 122.711 35.25 122.711 32.9688V30.7813L117.586 31.1563C114.868 31.3438 113.649 32.4063 113.649 34.125V34.1563ZM137.808 45.0938V10.5938H150.62V17H150.87C152.558 12.3438 156.089 9.8438 161.308 9.8438C168.901 9.8438 173.151 14.6563 173.151 22.9376V45.0938H160.339V25.75C160.339 22.2813 158.714 20.1563 155.495 20.1563C152.464 20.1563 150.62 22.5 150.62 25.7188V45.0938H137.808ZM187.841 45.8438C179.279 45.8438 174.373 39.3438 174.373 27.8438V27.8126C174.373 16.25 179.216 9.8438 187.904 9.8438C192.841 9.8438 196.529 12.4376 198.154 16.8126H198.404V0H211.216V45.0938H198.404V39.1876H198.154C196.591 43.3438 192.841 45.8438 187.841 45.8438ZM192.873 35.5313C196.248 35.5313 198.404 32.6876 198.404 27.875V27.8438C198.404 23 196.216 20.1563 192.873 20.1563C189.56 20.1563 187.373 23 187.373 27.8126V27.8438C187.373 32.5938 189.529 35.5313 192.873 35.5313ZM229.5 45.8438C218.625 45.8438 212.938 41.1876 212.156 34.3126L212.125 34.0313H224.5L224.562 34.2813C225.062 36.2813 226.625 37.4688 229.5 37.4688C231.969 37.4688 233.5 36.625 233.5 35.25V35.2188C233.5 33.9688 232.469 33.25 229.625 32.7188L223.375 31.5626C216.531 30.3126 212.906 26.6563 212.906 21.3126V21.2813C212.906 14.125 219 9.8438 229.031 9.8438C239.719 9.8438 245.156 15.1563 245.156 21.4376V21.6563H233.531L233.5 21.375C233.312 19.75 231.781 18.2188 229.031 18.2188C226.688 18.2188 225.156 19.0938 225.156 20.5626V20.5938C225.156 21.8126 226.031 22.5 229.156 23.0938L235.406 24.25C242.844 25.625 246.188 28.5313 246.188 33.75V33.7813C246.188 41.2188 239.5 45.8438 229.5 45.8438ZM247.221 45.0938V0H260.034V17H260.284C261.971 12.3438 265.503 9.8438 270.721 9.8438C278.315 9.8438 282.565 14.6563 282.565 22.9376V45.0938H269.753V25.75C269.753 22.2813 268.128 20.1563 264.909 20.1563C261.878 20.1563 260.034 22.5 260.034 25.7188V45.0938H247.221ZM295.255 45.5313C288.286 45.5313 283.536 41.0313 283.536 35.0938V35.0626C283.536 28.4063 288.661 24.75 297.849 24.125L305.099 23.6563V22.25C305.099 20.25 303.818 19 301.193 19C298.568 19 297.099 20.1563 296.818 21.5626L296.755 21.875H285.318L285.349 21.4688C285.88 14.4376 291.849 9.8438 301.911 9.8438C311.505 9.8438 317.911 14.625 317.911 21.625V45.0938H305.099V40.4063H304.849C302.911 43.6876 299.693 45.5313 295.255 45.5313ZM296.036 34.1563C296.036 35.9688 297.568 36.9376 299.943 36.9376C303.005 36.9376 305.099 35.25 305.099 32.9688V30.7813L299.974 31.1563C297.255 31.3438 296.036 32.4063 296.036 34.125V34.1563ZM320.351 45.0938V0H333.164V23.0626H333.414L341.789 10.5938H355.883L344.414 25.3126L356.695 45.0938H341.976L334.82 33L333.164 35.1563V45.0938H320.351ZM371.01 45.8438C359.823 45.8438 353.01 39.0626 353.01 27.8438V27.8126C353.01 16.5938 359.823 9.8438 370.604 9.8438C381.354 9.8438 388.229 16.5938 388.229 27.0938V30.7188H365.51C365.635 34.6876 367.76 37.0313 371.26 37.0313C374.635 37.0313 376.291 35 376.635 34L376.666 33.9063H388.073L387.979 34.3126C386.948 38.8126 383.01 45.8438 371.01 45.8438ZM370.948 18.6563C368.166 18.6563 366.229 20.4063 365.666 23.4688H376.229C375.666 20.4063 373.729 18.6563 370.948 18.6563Z" fill="white"/>
<path d="M30.0335 45.0415C28.3458 44.7988 20.1604 37.6276 3.68552 23.1492C1.53986 20.602 0.660977 19.0516 0.1121 15.8995C-0.193064 7.95178 0.241135 5.76268 0.0644029 1.68618C0.00979205 0.236678 1.18792 -0.262321 2.20846 0.350679L16.931 10.2714L11.0229 15.8995C9.89507 17.194 10.11 20.1185 12.7858 22.0999C15.0387 23.4013 19.6184 23.4401 21.5526 22.0999L25.9836 18.5704L43.279 32.2591C44.8571 33.929 42.1251 36.2262 40.6108 35.2162C40.6108 35.2162 30.7005 26.7741 29.6523 26.2971C28.6041 25.8202 26.8296 26.1256 27.6036 28.348C31.859 32.1631 35.2306 34.2066 38.8956 37.7918C40.1662 39.4224 38.0535 41.7094 36.2751 40.415L24.7925 31.2575C23.3344 30.3688 22.2649 32.0777 22.7914 33.2607C27.0044 36.6318 29.5895 38.5514 33.2258 41.8459C34.1917 43.113 33.0112 45.4746 30.0335 45.0415Z" fill="white"/>
<path d="M27.7942 16.0425L43.7079 28.348C50.0324 22.8991 53.0701 19.976 52.9988 16.1856V1.49537C53.0023 0.653175 51.7143 0.0165742 50.95 0.493774L37.1328 9.93748H35.5605C30.3865 6.85658 26.8993 6.30647 23.5061 8.88817L13.9293 17.5688C12.2997 19.2857 16.8498 20.926 19.8374 19.2858L24.2684 15.8995C25.7177 14.8102 26.4731 15.1021 27.7942 16.0425Z" fill="white"/>
</svg>
