<svg width="851" height="100" viewBox="0 0 851 100" fill="none" xmlns="http://www.w3.org/2000/svg">
<path d="M28.3133 28.2022L0 28.2017V70.0277H28.3133V28.2022Z" fill="white"/>
<path d="M28.3133 100V70.3032H71.3754V100H28.3133Z" fill="white"/>
<path d="M100 70.0277H71.3754V28.2022L100 28.2019V70.0277Z" fill="white"/>
<path d="M71.3754 27.9307H28.3133V0H71.3754V27.9307Z" fill="white"/>
<path d="M141 98.3636V0H169.9V37.4232H204.524V0H233.424V98.3636H204.524V60.327H169.9V98.3636H141ZM260.184 99.3179C244.983 99.3179 234.623 89.5021 234.623 76.5505V76.4823C234.623 61.963 245.802 53.9875 265.84 52.6242L281.653 51.6017V48.5342C281.653 44.1716 278.859 41.4449 273.133 41.4449C267.408 41.4449 264.205 43.9671 263.592 47.0346L263.455 47.7163H238.508L238.577 46.8301C239.735 31.4928 252.753 21.4723 274.701 21.4723C295.625 21.4723 309.598 31.9017 309.598 47.1709V98.3636H281.653V88.1387H281.108C276.882 95.2961 269.862 99.3179 260.184 99.3179ZM261.888 74.5055C261.888 78.4592 265.227 80.5723 270.406 80.5723C277.087 80.5723 281.653 76.8913 281.653 71.9152V67.1436L270.475 67.9616C264.546 68.3706 261.888 70.6882 261.888 74.4374V74.5055ZM313.184 98.3636V23.1082H341.129V37.0823H341.674C345.354 26.9256 353.057 21.4723 364.439 21.4723C381.002 21.4723 390.271 31.9699 390.271 50.0339V98.3636H362.326V56.1688C362.326 48.6025 358.782 43.9671 351.762 43.9671C345.15 43.9671 341.129 49.0796 341.129 56.1007V98.3636H313.184ZM420.916 100C402.24 100 391.54 85.8211 391.54 60.7359V60.6678C391.54 35.4464 402.104 21.4723 421.052 21.4723C431.821 21.4723 439.865 27.1301 443.408 36.6734H443.954V0H471.899V98.3636H443.954V85.4803H443.408C440 94.5464 431.821 100 420.916 100ZM431.89 77.5048C439.251 77.5048 443.954 71.3017 443.954 60.8042V60.7359C443.954 50.1702 439.183 43.9671 431.89 43.9671C424.664 43.9671 419.893 50.1702 419.893 60.6678V60.7359C419.893 71.0972 424.597 77.5048 431.89 77.5048ZM510.382 100C486.662 100 474.258 89.8429 472.554 74.8463L472.485 74.2329H499.477L499.612 74.7782C500.703 79.1409 504.111 81.7311 510.382 81.7311C515.767 81.7311 519.106 79.8906 519.106 76.8913V76.8231C519.106 74.0966 516.857 72.5287 510.655 71.3699L497.023 68.8477C482.096 66.1211 474.189 58.1457 474.189 46.4892V46.4211C474.189 30.8111 487.48 21.4723 509.36 21.4723C532.67 21.4723 544.529 33.0605 544.529 46.762V47.2391H519.175L519.106 46.6256C518.697 43.0809 515.357 39.7408 509.36 39.7408C504.248 39.7408 500.907 41.6495 500.907 44.8533V44.9214C500.907 47.58 502.816 49.0796 509.632 50.3747L523.264 52.8969C539.486 55.8962 546.779 62.2356 546.779 73.6193V73.6875C546.779 89.911 532.192 100 510.382 100ZM547.637 98.3636V0H575.583V37.0823H576.128C579.809 26.9256 587.511 21.4723 598.894 21.4723C615.456 21.4723 624.726 31.9699 624.726 50.0339V98.3636H596.781V56.1688C596.781 48.6025 593.236 43.9671 586.216 43.9671C579.604 43.9671 575.583 49.0796 575.583 56.1007V98.3636H547.637ZM651.007 99.3179C635.808 99.3179 625.448 89.5021 625.448 76.5505V76.4823C625.448 61.963 636.626 53.9875 656.665 52.6242L672.477 51.6017V48.5342C672.477 44.1716 669.684 41.4449 663.958 41.4449C658.232 41.4449 655.029 43.9671 654.415 47.0346L654.279 47.7163H629.333L629.401 46.8301C630.56 31.4928 643.578 21.4723 665.526 21.4723C686.45 21.4723 700.423 31.9017 700.423 47.1709V98.3636H672.477V88.1387H671.933C667.706 95.2961 660.686 99.3179 651.007 99.3179ZM652.711 74.5055C652.711 78.4592 656.052 80.5723 661.231 80.5723C667.911 80.5723 672.477 76.8913 672.477 71.9152V67.1436L661.299 67.9616C655.37 68.3706 652.711 70.6882 652.711 74.4374V74.5055ZM704.349 98.3636V0H732.295V50.3065H732.839L751.106 23.1082H781.846L756.832 55.2145L783.618 98.3636H751.515L735.907 71.9833L732.295 76.6868V98.3636H704.349ZM813.444 100C789.044 100 774.185 85.2075 774.185 60.7359V60.6678C774.185 36.1961 789.044 21.4723 812.559 21.4723C836.005 21.4723 851 36.1961 851 59.1V67.0073H801.449C801.721 75.6643 806.356 80.7768 813.99 80.7768C821.351 80.7768 824.963 76.346 825.713 74.1647L825.781 73.9601H850.66L850.455 74.8463C848.206 84.6623 839.617 100 813.444 100ZM813.309 40.6952C807.243 40.6952 803.016 44.5125 801.79 51.1927H824.827C823.6 44.5125 819.375 40.6952 813.309 40.6952Z" fill="white"/>
</svg>
