<svg width="920" height="167" viewBox="0 0 920 167" fill="none" xmlns="http://www.w3.org/2000/svg">
<path d="M148.234 133V34.3574H177.219V71.8867H211.945V34.3574H240.93V133H211.945V94.8555H177.219V133H148.234ZM274.768 133.957C259.523 133.957 249.133 124.113 249.133 111.125V111.057C249.133 96.4961 260.344 88.498 280.441 87.1309L296.301 86.1055V83.0293C296.301 78.6543 293.498 75.9199 287.756 75.9199C282.014 75.9199 278.801 78.4492 278.186 81.5254L278.049 82.209H253.029L253.098 81.3203C254.26 65.9395 267.316 55.8906 289.328 55.8906C310.314 55.8906 324.328 66.3496 324.328 81.6621V133H296.301V122.746H295.754C291.516 129.924 284.475 133.957 274.768 133.957ZM276.477 109.074C276.477 113.039 279.826 115.158 285.021 115.158C291.721 115.158 296.301 111.467 296.301 106.477V101.691L285.09 102.512C279.143 102.922 276.477 105.246 276.477 109.006V109.074ZM334.924 133V57.5312H362.951V71.5449H363.498C367.189 61.3594 374.914 55.8906 386.33 55.8906C402.941 55.8906 412.238 66.418 412.238 84.5332V133H384.211V90.6855C384.211 83.0977 380.656 78.4492 373.615 78.4492C366.984 78.4492 362.951 83.5762 362.951 90.6172V133H334.924ZM449.973 134.641C431.242 134.641 420.51 120.422 420.51 95.2656V95.1973C420.51 69.9043 431.105 55.8906 450.109 55.8906C460.91 55.8906 468.977 61.5645 472.531 71.1348H473.078V34.3574H501.105V133H473.078V120.08H472.531C469.113 129.172 460.91 134.641 449.973 134.641ZM460.979 112.082C468.361 112.082 473.078 105.861 473.078 95.334V95.2656C473.078 84.6699 468.293 78.4492 460.979 78.4492C453.732 78.4492 448.947 84.6699 448.947 95.1973V95.2656C448.947 105.656 453.664 112.082 460.979 112.082ZM546.701 134.641C522.912 134.641 510.471 124.455 508.762 109.416L508.693 108.801H535.764L535.9 109.348C536.994 113.723 540.412 116.32 546.701 116.32C552.102 116.32 555.451 114.475 555.451 111.467V111.398C555.451 108.664 553.195 107.092 546.975 105.93L533.303 103.4C518.332 100.666 510.402 92.668 510.402 80.9785V80.9102C510.402 65.2559 523.732 55.8906 545.676 55.8906C569.055 55.8906 580.949 67.5117 580.949 81.252V81.7305H555.52L555.451 81.1152C555.041 77.5605 551.691 74.2109 545.676 74.2109C540.549 74.2109 537.199 76.125 537.199 79.3379V79.4062C537.199 82.0723 539.113 83.5762 545.949 84.875L559.621 87.4043C575.891 90.4121 583.205 96.7695 583.205 108.186V108.254C583.205 124.523 568.576 134.641 546.701 134.641ZM591.066 133V34.3574H619.094V71.5449H619.641C623.332 61.3594 631.057 55.8906 642.473 55.8906C659.084 55.8906 668.381 66.418 668.381 84.5332V133H640.354V90.6855C640.354 83.0977 636.799 78.4492 629.758 78.4492C623.127 78.4492 619.094 83.5762 619.094 90.6172V133H591.066ZM701.74 133.957C686.496 133.957 676.105 124.113 676.105 111.125V111.057C676.105 96.4961 687.316 88.498 707.414 87.1309L723.273 86.1055V83.0293C723.273 78.6543 720.471 75.9199 714.729 75.9199C708.986 75.9199 705.773 78.4492 705.158 81.5254L705.021 82.209H680.002L680.07 81.3203C681.232 65.9395 694.289 55.8906 716.301 55.8906C737.287 55.8906 751.301 66.3496 751.301 81.6621V133H723.273V122.746H722.727C718.488 129.924 711.447 133.957 701.74 133.957ZM703.449 109.074C703.449 113.039 706.799 115.158 711.994 115.158C718.693 115.158 723.273 111.467 723.273 106.477V101.691L712.062 102.512C706.115 102.922 703.449 105.246 703.449 109.006V109.074ZM762.238 133V34.3574H790.266V84.8066H790.812L809.133 57.5312H839.963L814.875 89.7285L841.74 133H809.543L793.889 106.545L790.266 111.262V133H762.238ZM878.654 134.641C854.182 134.641 839.279 119.807 839.279 95.2656V95.1973C839.279 70.6562 854.182 55.8906 877.766 55.8906C901.281 55.8906 916.32 70.6562 916.32 93.625V101.555H866.623C866.896 110.236 871.545 115.363 879.201 115.363C886.584 115.363 890.207 110.92 890.959 108.732L891.027 108.527H915.979L915.773 109.416C913.518 119.26 904.904 134.641 878.654 134.641ZM878.518 75.168C872.434 75.168 868.195 78.9961 866.965 85.6953H890.07C888.84 78.9961 884.602 75.168 878.518 75.168Z" fill="white"/>
<path d="M28.3133 61.2022L0 61.2017V103.028H28.3133V61.2022Z" fill="white"/>
<path d="M28.3133 133V103.303H71.3754V133H28.3133Z" fill="white"/>
<path d="M100 103.028H71.3754V61.2022L100 61.2019V103.028Z" fill="white"/>
<path d="M71.3754 60.9307H28.3133V33H71.3754V60.9307Z" fill="white"/>
</svg>
