<svg width="910" height="101" viewBox="0 0 910 101" fill="none" xmlns="http://www.w3.org/2000/svg">
<path d="M28.3133 28.2022L0 28.2017V70.0277H28.3133V28.2022Z" fill="white"/>
<path d="M28.3133 100V70.3032H71.3754V100H28.3133Z" fill="white"/>
<path d="M100 70.0277H71.3754V28.2022L100 28.2019V70.0277Z" fill="white"/>
<path d="M71.3754 27.9307H28.3133V0H71.3754V27.9307Z" fill="white"/>
<path d="M141 98.6426V0H169.984V37.5293H204.711V0H233.695V98.6426H204.711V60.4981H169.984V98.6426H141ZM267.534 99.5996C252.289 99.5996 241.899 89.7559 241.899 76.7676V76.6992C241.899 62.1387 253.11 54.1406 273.207 52.7735L289.067 51.7481V48.6719C289.067 44.2969 286.264 41.5625 280.522 41.5625C274.78 41.5625 271.567 44.0918 270.952 47.168L270.815 47.8516H245.795L245.864 46.9629C247.026 31.5821 260.082 21.5332 282.094 21.5332C303.08 21.5332 317.094 31.9922 317.094 47.3047V98.6426H289.067V88.3887H288.52C284.282 95.5664 277.241 99.5996 267.534 99.5996ZM269.243 74.7168C269.243 78.6817 272.592 80.8008 277.787 80.8008C284.487 80.8008 289.067 77.1094 289.067 72.1192V67.334L277.856 68.1543C271.909 68.5645 269.243 70.8887 269.243 74.6485V74.7168ZM327.69 98.6426V23.1738H355.717V37.1875H356.264C359.955 27.002 367.68 21.5332 379.096 21.5332C395.707 21.5332 405.004 32.0606 405.004 50.1758V98.6426H376.977V56.3281C376.977 48.7403 373.422 44.0918 366.381 44.0918C359.75 44.0918 355.717 49.2188 355.717 56.2598V98.6426H327.69ZM442.739 100.284C424.008 100.284 413.276 86.0645 413.276 60.9082V60.8399C413.276 35.5469 423.871 21.5332 442.875 21.5332C453.676 21.5332 461.743 27.2071 465.297 36.7774H465.844V0H493.871V98.6426H465.844V85.7227H465.297C461.879 94.8145 453.676 100.284 442.739 100.284ZM453.745 77.7246C461.127 77.7246 465.844 71.5039 465.844 60.9766V60.9082C465.844 50.3125 461.059 44.0918 453.745 44.0918C446.498 44.0918 441.713 50.3125 441.713 60.8399V60.9082C441.713 71.2988 446.43 77.7246 453.745 77.7246ZM539.467 100.284C515.678 100.284 503.237 90.0977 501.528 75.0586L501.459 74.4434H528.53L528.666 74.9903C529.76 79.3653 533.178 81.9629 539.467 81.9629C544.868 81.9629 548.217 80.1172 548.217 77.1094V77.041C548.217 74.3067 545.961 72.7344 539.741 71.5723L526.069 69.043C511.098 66.3086 503.168 58.3106 503.168 46.6211V46.5528C503.168 30.8985 516.498 21.5332 538.442 21.5332C561.821 21.5332 573.715 33.1543 573.715 46.8946V47.3731H548.286L548.217 46.7578C547.807 43.2031 544.457 39.8535 538.442 39.8535C533.315 39.8535 529.965 41.7676 529.965 44.9805V45.0488C529.965 47.7149 531.879 49.2188 538.715 50.5176L552.387 53.0469C568.657 56.0547 575.971 62.4121 575.971 73.8281V73.8965C575.971 90.166 561.342 100.284 539.467 100.284ZM583.832 98.6426V0H611.86V37.1875H612.407C616.098 27.002 623.823 21.5332 635.239 21.5332C651.85 21.5332 661.147 32.0606 661.147 50.1758V98.6426H633.12V56.3281C633.12 48.7403 629.565 44.0918 622.524 44.0918C615.893 44.0918 611.86 49.2188 611.86 56.2598V98.6426H583.832ZM694.506 99.5996C679.262 99.5996 668.871 89.7559 668.871 76.7676V76.6992C668.871 62.1387 680.082 54.1406 700.18 52.7735L716.039 51.7481V48.6719C716.039 44.2969 713.237 41.5625 707.495 41.5625C701.752 41.5625 698.539 44.0918 697.924 47.168L697.787 47.8516H672.768L672.836 46.9629C673.998 31.5821 687.055 21.5332 709.067 21.5332C730.053 21.5332 744.067 31.9922 744.067 47.3047V98.6426H716.039V88.3887H715.493C711.254 95.5664 704.213 99.5996 694.506 99.5996ZM696.215 74.7168C696.215 78.6817 699.565 80.8008 704.76 80.8008C711.459 80.8008 716.039 77.1094 716.039 72.1192V67.334L704.828 68.1543C698.881 68.5645 696.215 70.8887 696.215 74.6485V74.7168ZM755.004 98.6426V0H783.032V50.4492H783.578L801.899 23.1738H832.729L807.641 55.3711L834.506 98.6426H802.309L786.655 72.1875L783.032 76.9043V98.6426H755.004ZM871.42 100.284C846.948 100.284 832.045 85.4492 832.045 60.9082V60.8399C832.045 36.2988 846.948 21.5332 870.532 21.5332C894.047 21.5332 909.086 36.2988 909.086 59.2676V67.1973H859.389C859.662 75.8789 864.311 81.0059 871.967 81.0059C879.35 81.0059 882.973 76.5625 883.725 74.375L883.793 74.1699H908.745L908.539 75.0586C906.284 84.9024 897.67 100.284 871.42 100.284ZM871.284 40.8106C865.2 40.8106 860.961 44.6387 859.731 51.3379H882.836C881.606 44.6387 877.368 40.8106 871.284 40.8106Z" fill="white"/>
</svg>
