<svg width="50" height="50" viewBox="0 0 50 50" fill="none" xmlns="http://www.w3.org/2000/svg">
<g clip-path="url(#paint0_diamond_509_337_clip_path)" data-figma-skip-parse="true"><g transform="matrix(0.0591186 -0.00630841 0.00630841 0.142618 1.78057e-06 31.5421)"><rect x="0" y="0" width="882.854" height="227.85" fill="url(#paint0_diamond_509_337)" opacity="1" shape-rendering="crispEdges"/><rect x="0" y="0" width="882.854" height="227.85" transform="scale(1 -1)" fill="url(#paint0_diamond_509_337)" opacity="1" shape-rendering="crispEdges"/><rect x="0" y="0" width="882.854" height="227.85" transform="scale(-1 1)" fill="url(#paint0_diamond_509_337)" opacity="1" shape-rendering="crispEdges"/><rect x="0" y="0" width="882.854" height="227.85" transform="scale(-1)" fill="url(#paint0_diamond_509_337)" opacity="1" shape-rendering="crispEdges"/></g></g><circle cx="25" cy="25" r="25" data-figma-gradient-fill="{&#34;type&#34;:&#34;GRADIENT_DIAMOND&#34;,&#34;stops&#34;:[{&#34;color&#34;:{&#34;r&#34;:0.41960784792900085,&#34;g&#34;:0.74509805440902710,&#34;b&#34;:1.0,&#34;a&#34;:1.0},&#34;position&#34;:0.37692478299140930},{&#34;color&#34;:{&#34;r&#34;:1.0,&#34;g&#34;:0.64705884456634521,&#34;b&#34;:0.32156863808631897,&#34;a&#34;:1.0},&#34;position&#34;:0.52684378623962402},{&#34;color&#34;:{&#34;r&#34;:1.0,&#34;g&#34;:0.43368503451347351,&#34;b&#34;:0.41354009509086609,&#34;a&#34;:1.0},&#34;position&#34;:0.60472220182418823},{&#34;color&#34;:{&#34;r&#34;:0.78823530673980713,&#34;g&#34;:0.71372550725936890,&#34;b&#34;:1.0,&#34;a&#34;:1.0},&#34;position&#34;:1.0}],&#34;stopsVar&#34;:[{&#34;color&#34;:{&#34;r&#34;:0.41960784792900085,&#34;g&#34;:0.74509805440902710,&#34;b&#34;:1.0,&#34;a&#34;:1.0},&#34;position&#34;:0.37692478299140930},{&#34;color&#34;:{&#34;r&#34;:1.0,&#34;g&#34;:0.64705884456634521,&#34;b&#34;:0.32156863808631897,&#34;a&#34;:1.0},&#34;position&#34;:0.52684378623962402},{&#34;color&#34;:{&#34;r&#34;:1.0,&#34;g&#34;:0.43368503451347351,&#34;b&#34;:0.41354009509086609,&#34;a&#34;:1.0},&#34;position&#34;:0.60472220182418823},{&#34;color&#34;:{&#34;r&#34;:0.78823530673980713,&#34;g&#34;:0.71372550725936890,&#34;b&#34;:1.0,&#34;a&#34;:1.0},&#34;position&#34;:1.0}],&#34;transform&#34;:{&#34;m00&#34;:118.23716735839844,&#34;m01&#34;:12.616818428039551,&#34;m02&#34;:-65.426986694335938,&#34;m10&#34;:-12.616817474365234,&#34;m11&#34;:285.23550415039062,&#34;m12&#34;:-104.76728820800781},&#34;opacity&#34;:1.0,&#34;blendMode&#34;:&#34;NORMAL&#34;,&#34;visible&#34;:true}"/>
<path d="M26.8334 42.9651C25.7189 42.8033 20.3135 38.0225 9.43383 28.3703C8.01689 26.6721 7.43649 25.6385 7.07403 23.5371C6.8725 18.2387 7.15924 16.7793 7.04253 14.0616C7.00647 13.0953 7.78448 12.7626 8.45842 13.1713L18.1808 19.7851L14.2793 23.5371C13.5345 24.4001 13.6764 26.3498 15.4434 27.6707C16.9312 28.5383 19.9555 28.5642 21.2328 27.6707L24.159 25.3177L35.5805 34.4435C36.6226 35.5568 34.8184 37.0883 33.8184 36.4149C33.8184 36.4149 27.2739 30.7869 26.5817 30.4689C25.8895 30.1509 24.7177 30.3545 25.2288 31.8361C28.039 34.3795 30.2655 35.7419 32.6858 38.132C33.5248 39.2191 32.1297 40.7437 30.9552 39.8808L23.3724 33.7758C22.4095 33.1833 21.7032 34.3226 22.0509 35.1113C24.8331 37.3587 26.5402 38.6384 28.9416 40.8347C29.5794 41.6795 28.7998 43.2539 26.8334 42.9651Z" fill="white"/>
<path d="M25.3547 23.6325L35.8637 31.8361C40.0402 28.2035 42.0463 26.2548 41.9992 23.7279V13.9344C42.0015 13.3729 41.1509 12.9485 40.6462 13.2666L31.5216 19.5625H30.4833C27.0665 17.5086 24.7637 17.1418 22.5229 18.8629L16.1986 24.65C15.1224 25.7946 18.1272 26.8881 20.1002 25.7947L23.0263 23.5371C23.9834 22.8109 24.4822 23.0055 25.3547 23.6325Z" fill="white"/>
<defs>
<clipPath id="paint0_diamond_509_337_clip_path"><circle cx="25" cy="25" r="25"/></clipPath><linearGradient id="paint0_diamond_509_337" x1="0" y1="0" x2="500" y2="500" gradientUnits="userSpaceOnUse">
<stop offset="0.376925" stop-color="#6BBEFF"/>
<stop offset="0.526844" stop-color="#FFA552"/>
<stop offset="0.604722" stop-color="#FF6F69"/>
<stop offset="1" stop-color="#C9B6FF"/>
</linearGradient>
</defs>
</svg>
