<svg width="173" height="25" viewBox="0 0 173 25" fill="none" xmlns="http://www.w3.org/2000/svg">
<path d="M0.380432 24V0.0439453H7.18707V9.0752H7.31989C8.21637 6.60156 10.0923 5.27344 12.8648 5.27344C16.899 5.27344 19.1568 7.83008 19.1568 12.2295V24H12.3502V13.7236C12.3502 11.8809 11.4869 10.752 9.77692 10.752C8.16656 10.752 7.18707 11.9971 7.18707 13.707V24H0.380432ZM25.8984 24.2324C22.1962 24.2324 19.6728 21.8418 19.6728 18.6875V18.6709C19.6728 15.1348 22.3954 13.1924 27.2763 12.8604L31.1279 12.6113V11.8643C31.1279 10.8018 30.4472 10.1377 29.0527 10.1377C27.6581 10.1377 26.8779 10.752 26.7284 11.499L26.6952 11.665H20.6191L20.6357 11.4492C20.9179 7.71387 24.0888 5.27344 29.4345 5.27344C34.5312 5.27344 37.9345 7.81348 37.9345 11.5322V24H31.1279V21.5098H30.995C29.9657 23.2529 28.2558 24.2324 25.8984 24.2324ZM26.3134 18.1895C26.3134 19.1523 27.1269 19.667 28.3886 19.667C30.0155 19.667 31.1279 18.7705 31.1279 17.5586V16.3965L28.4052 16.5957C26.9609 16.6953 26.3134 17.2598 26.3134 18.1729V18.1895ZM39.1477 24V5.67188H45.9544V9.0752H46.0872C46.9837 6.60156 48.8596 5.27344 51.6321 5.27344C55.6663 5.27344 57.9241 7.83008 57.9241 12.2295V24H51.1175V13.7236C51.1175 11.8809 50.2542 10.752 48.5442 10.752C46.9339 10.752 45.9544 11.9971 45.9544 13.707V24H39.1477ZM65.7282 24.3984C61.1793 24.3984 58.5729 20.9453 58.5729 14.8359V14.8193C58.5729 8.67676 61.1461 5.27344 65.7614 5.27344C68.3844 5.27344 70.3434 6.65137 71.2067 8.97559H71.3395V0.0439453H78.1461V24H71.3395V20.8623H71.2067C70.3766 23.0703 68.3844 24.3984 65.7282 24.3984ZM68.401 18.9199C70.194 18.9199 71.3395 17.4092 71.3395 14.8525V14.8359C71.3395 12.2627 70.1774 10.752 68.401 10.752C66.6413 10.752 65.4791 12.2627 65.4791 14.8193V14.8359C65.4791 17.3594 66.6246 18.9199 68.401 18.9199ZM87.8594 24.3984C82.082 24.3984 79.0605 21.9248 78.6455 18.2725L78.6289 18.123H85.2031L85.2363 18.2559C85.502 19.3184 86.332 19.9492 87.8594 19.9492C89.1709 19.9492 89.9844 19.501 89.9844 18.7705V18.7539C89.9844 18.0898 89.4365 17.708 87.9258 17.4258L84.6055 16.8115C80.9697 16.1475 79.0439 14.2051 79.0439 11.3662V11.3496C79.0439 7.54785 82.2812 5.27344 87.6104 5.27344C93.2881 5.27344 96.1768 8.0957 96.1768 11.4326V11.5488H90.001L89.9844 11.3994C89.8848 10.5361 89.0713 9.72266 87.6104 9.72266C86.3652 9.72266 85.5518 10.1875 85.5518 10.9678V10.9844C85.5518 11.6318 86.0166 11.9971 87.6768 12.3125L90.9971 12.9268C94.9482 13.6572 96.7246 15.2012 96.7246 17.9736V17.9902C96.7246 21.9414 93.1719 24.3984 87.8594 24.3984ZM97.2738 24V0.0439453H104.08V9.0752H104.213C105.11 6.60156 106.986 5.27344 109.758 5.27344C113.792 5.27344 116.05 7.83008 116.05 12.2295V24H109.244V13.7236C109.244 11.8809 108.38 10.752 106.67 10.752C105.06 10.752 104.08 11.9971 104.08 13.707V24H97.2738ZM122.792 24.2324C119.09 24.2324 116.566 21.8418 116.566 18.6875V18.6709C116.566 15.1348 119.289 13.1924 124.17 12.8604L128.021 12.6113V11.8643C128.021 10.8018 127.341 10.1377 125.946 10.1377C124.551 10.1377 123.771 10.752 123.622 11.499L123.589 11.665H117.512L117.529 11.4492C117.811 7.71387 120.982 5.27344 126.328 5.27344C131.425 5.27344 134.828 7.81348 134.828 11.5322V24H128.021V21.5098H127.888C126.859 23.2529 125.149 24.2324 122.792 24.2324ZM123.207 18.1895C123.207 19.1523 124.02 19.667 125.282 19.667C126.909 19.667 128.021 18.7705 128.021 17.5586V16.3965L125.299 16.5957C123.854 16.6953 123.207 17.2598 123.207 18.1729V18.1895ZM136.124 24V0.0439453H142.931V12.2959H143.064L147.513 5.67188H155L148.907 13.4912L155.432 24H147.612L143.811 17.5752L142.931 18.7207V24H136.124ZM163.037 24.3984C157.093 24.3984 153.474 20.7959 153.474 14.8359V14.8193C153.474 8.85938 157.093 5.27344 162.821 5.27344C168.532 5.27344 172.184 8.85938 172.184 14.4375V16.3633H160.115C160.181 18.4717 161.31 19.7168 163.169 19.7168C164.962 19.7168 165.842 18.6377 166.025 18.1064L166.041 18.0566H172.101L172.051 18.2725C171.503 20.6631 169.412 24.3984 163.037 24.3984ZM163.003 9.95508C161.526 9.95508 160.497 10.8848 160.198 12.5117H165.809C165.51 10.8848 164.481 9.95508 163.003 9.95508Z" fill="black"/>
</svg>
