<svg width="751" height="179" viewBox="0 0 751 179" fill="none" xmlns="http://www.w3.org/2000/svg">
<path fill-rule="evenodd" clip-rule="evenodd" d="M62.5 152C97.0178 152 125 124.018 125 89.5C125 54.9822 97.0178 27 62.5 27C27.9822 27 0 54.9822 0 89.5C0 124.018 27.9822 152 62.5 152ZM27.6922 73.3612C20.3207 70.8386 16.9771 75.1583 18.8519 81.7754C7.08022 85.2871 15.1096 100.93 25.0295 91.6808L42.1774 99.9885V92.0003C32.7829 86.6992 28.8983 82.9954 27.6922 73.3612ZM107.148 81.8653C109.023 75.2482 105.679 70.9285 98.3078 73.4511C97.1017 83.0853 93.2171 86.7891 83.8225 92.0902V100.078L100.971 91.7707C110.89 101.02 118.92 85.377 107.148 81.8653ZM62.3077 38C28.3166 41.1358 22.3235 78.3753 44.5206 88.9114C45.6768 90.1651 46.2244 90.9179 46.4378 92.6393V101.799C46.8628 106.12 48.8533 106.343 52.9349 106.698V95.6215C52.9349 95.6215 54.8086 93.9614 56.2367 95.6215V107.338C56.7756 108.75 60.3857 109.38 61.0296 107.338L60.7101 95.6218C61.9195 94.4629 62.6197 94.479 63.9053 95.6218L63.5858 107.338C64.2297 109.38 67.8398 108.75 68.3787 107.338V95.6215C69.8068 93.9614 71.6805 95.6215 71.6805 95.6215V106.698C75.7621 106.343 77.7526 106.12 78.1776 101.799V92.6393C78.391 90.9179 78.9386 90.1651 80.0948 88.9114C102.292 78.3753 96.2988 41.1358 62.3077 38ZM88.509 122.462L70.722 112.45C76.5801 111.444 78.9639 110.353 80.8403 107.018L94.2605 114.367C101.518 104.12 114.736 119.588 101.61 123.74L101.929 127.148C101.1 136.68 89.0785 134.579 88.509 127.148V122.462ZM53.8238 112.556L36.0367 122.568V127.255C35.4672 134.685 23.4457 136.786 22.6166 127.255L22.9361 123.846C9.8096 119.695 23.028 104.226 30.2852 114.474L43.7054 107.124C45.5818 110.46 47.9657 111.551 53.8238 112.556Z" fill="#DAD9D3"/>
<path d="M158.033 143V37.3115H200.514C222.779 37.3115 237.647 51.667 237.647 73.4199V73.5664C237.647 95.3193 222.779 109.675 200.514 109.675H180.152V143H158.033ZM195.094 54.8164H180.152V92.3896H195.094C207.765 92.3896 215.235 85.6514 215.235 73.6396V73.4932C215.235 61.4814 207.765 54.8164 195.094 54.8164ZM254.06 54.377C247.614 54.377 242.634 49.3232 242.634 43.2441C242.634 37.165 247.614 32.1113 254.06 32.1113C260.505 32.1113 265.485 37.165 265.485 43.2441C265.485 49.3232 260.505 54.377 254.06 54.377ZM243.366 143V64.4844H264.753V143H243.366ZM273.108 143V64.4844H294.495V78.1807H294.935C297.278 68.5127 303.65 62.873 312.806 62.873C315.149 62.873 317.347 63.2393 318.958 63.6787V82.502C317.2 81.7695 314.271 81.3301 311.194 81.3301C300.647 81.3301 294.495 87.6289 294.495 99.0547V143H273.108ZM343.207 144.245C327.46 144.245 316.84 134.357 316.84 120.515V120.368C316.84 106.086 327.899 97.7363 347.382 96.4912L366.791 95.3193V90.4854C366.791 83.5273 362.25 79.2061 353.9 79.2061C345.917 79.2061 341.083 82.9414 340.058 87.9951L339.911 88.6543H320.355L320.429 87.7754C321.601 73.2734 334.052 62.873 354.779 62.873C375.067 62.873 388.178 73.3467 388.178 89.167V143H366.791V131.281H366.352C361.884 139.338 353.534 144.245 343.207 144.245ZM338.007 119.416C338.007 125.202 342.768 128.645 350.165 128.645C359.76 128.645 366.791 122.492 366.791 114.289V108.649L350.604 109.675C342.328 110.188 338.007 113.703 338.007 119.27V119.416ZM427.222 144.611C409.79 144.611 401.587 137.873 401.587 121.027V80.5977H390.674V64.4844H401.587V45.2949H423.193V64.4844H437.549V80.5977H423.193V118.684C423.193 126.008 426.489 128.498 432.935 128.498C434.839 128.498 436.23 128.278 437.549 128.132V143.806C435.132 144.172 431.689 144.611 427.222 144.611ZM477.911 144.611C453.888 144.611 439.312 129.011 439.312 103.889V103.815C439.312 78.8398 454.034 62.873 477.032 62.873C500.03 62.873 514.459 78.4736 514.459 102.204V108.796H460.406C460.626 121.32 467.438 128.645 478.351 128.645C487.14 128.645 492.486 123.811 494.024 119.416L494.171 118.977H513.8L513.58 119.782C511.163 131.354 500.323 144.611 477.911 144.611ZM477.398 78.8398C468.609 78.8398 462.018 84.6992 460.626 95.3193H493.951C492.633 84.4795 486.261 78.8398 477.398 78.8398ZM521.35 143V37.3115H563.83C586.096 37.3115 600.964 51.667 600.964 73.4199V73.5664C600.964 95.3193 586.096 109.675 563.83 109.675H543.469V143H521.35ZM558.41 54.8164H543.469V92.3896H558.41C571.081 92.3896 578.552 85.6514 578.552 73.6396V73.4932C578.552 61.4814 571.081 54.8164 558.41 54.8164ZM624.48 144.245C608.733 144.245 598.113 134.357 598.113 120.515V120.368C598.113 106.086 609.173 97.7363 628.655 96.4912L648.064 95.3193V90.4854C648.064 83.5273 643.523 79.2061 635.174 79.2061C627.19 79.2061 622.356 82.9414 621.331 87.9951L621.185 88.6543H601.629L601.702 87.7754C602.874 73.2734 615.325 62.873 636.053 62.873C656.341 62.873 669.451 73.3467 669.451 89.167V143H648.064V131.281H647.625C643.157 139.338 634.808 144.245 624.48 144.245ZM619.28 119.416C619.28 125.202 624.041 128.645 631.438 128.645C641.033 128.645 648.064 122.492 648.064 114.289V108.649L631.878 109.675C623.602 110.188 619.28 113.703 619.28 119.27V119.416ZM689.159 168.854C684.984 168.854 680.736 168.342 678.246 167.902V152.009C679.784 152.302 682.274 152.741 685.424 152.741C691.796 152.741 695.312 150.91 697.216 145.563L698.168 143L670.409 64.4844H693.92L710.473 125.861H711.059L727.685 64.4844H750.243L723.29 144.392C717.138 162.922 706.591 168.854 689.159 168.854Z" fill="#DAD9D3"/>
</svg>
