<svg width="45" height="45" viewBox="0 0 45 45" fill="none" xmlns="http://www.w3.org/2000/svg">
<path d="M0 22.5C0 10.0736 10.0736 0 22.5 0C34.9264 0 45 10.0736 45 22.5C45 34.9264 34.9264 45 22.5 45C10.0736 45 0 34.9264 0 22.5Z" fill="#E725FF"/>
<path d="M22.5 24C23.3284 24 24 23.3284 24 22.5C24 21.6716 23.3284 21 22.5 21C21.6716 21 21 21.6716 21 22.5C21 23.3284 21.6716 24 22.5 24Z" fill="white"/>
<path d="M33 24C33.8284 24 34.5 23.3284 34.5 22.5C34.5 21.6716 33.8284 21 33 21C32.1716 21 31.5 21.6716 31.5 22.5C31.5 23.3284 32.1716 24 33 24Z" fill="white"/>
<path d="M12 24C12.8284 24 13.5 23.3284 13.5 22.5C13.5 21.6716 12.8284 21 12 21C11.1716 21 10.5 21.6716 10.5 22.5C10.5 23.3284 11.1716 24 12 24Z" fill="white"/>
<path d="M22.5 24C23.3284 24 24 23.3284 24 22.5C24 21.6716 23.3284 21 22.5 21C21.6716 21 21 21.6716 21 22.5C21 23.3284 21.6716 24 22.5 24Z" stroke="white" stroke-width="3" stroke-linecap="round" stroke-linejoin="round"/>
<path d="M33 24C33.8284 24 34.5 23.3284 34.5 22.5C34.5 21.6716 33.8284 21 33 21C32.1716 21 31.5 21.6716 31.5 22.5C31.5 23.3284 32.1716 24 33 24Z" stroke="white" stroke-width="3" stroke-linecap="round" stroke-linejoin="round"/>
<path d="M12 24C12.8284 24 13.5 23.3284 13.5 22.5C13.5 21.6716 12.8284 21 12 21C11.1716 21 10.5 21.6716 10.5 22.5C10.5 23.3284 11.1716 24 12 24Z" stroke="white" stroke-width="3" stroke-linecap="round" stroke-linejoin="round"/>
</svg>
