<svg width="45" height="45" viewBox="0 0 45 45" fill="none" xmlns="http://www.w3.org/2000/svg">
<path d="M0 22.5C0 10.0736 10.0736 0 22.5 0C34.9264 0 45 10.0736 45 22.5C45 34.9264 34.9264 45 22.5 45C10.0736 45 0 34.9264 0 22.5Z" fill="#E725FF"/>
<path d="M31.5 22.5V26.7C31.5 28.3802 31.5 29.2202 31.173 29.862C30.8854 30.4265 30.4265 30.8854 29.862 31.173C29.2202 31.5 28.3802 31.5 26.7 31.5H18.3C16.6198 31.5 15.7798 31.5 15.138 31.173C14.5735 30.8854 14.1146 30.4265 13.827 29.862C13.5 29.2202 13.5 28.3802 13.5 26.7V22.5M26.5 17.5L22.5 13.5M22.5 13.5L18.5 17.5M22.5 13.5V25.5" stroke="white" stroke-width="2" stroke-linecap="round" stroke-linejoin="round"/>
</svg>
