<svg width="876" height="148" viewBox="0 0 876 148" fill="none" xmlns="http://www.w3.org/2000/svg">
<path d="M62.5 11C97.0178 11 125 38.9822 125 73.5C125 108.018 97.0178 136 62.5 136C27.9822 136 0 108.018 0 73.5C0 38.9822 27.9822 11 62.5 11ZM19.9062 41.4541C18.1011 40.3712 16.0177 41.2528 16.1143 43.8135C16.4268 51.0152 15.6585 54.8831 16.1982 68.9238C17.1691 74.4924 18.7242 77.2314 22.5195 81.7314C51.6601 107.309 66.139 119.978 69.125 120.407C74.3921 121.172 76.4811 117 74.7725 114.762C68.3404 108.941 63.7676 105.55 56.3154 99.5947C55.3842 97.5048 57.2755 94.4859 59.8545 96.0557L80.166 112.234C83.3118 114.521 87.0483 110.48 84.8008 107.6C78.3181 101.266 72.3542 97.6558 64.8271 90.916C63.458 86.9898 66.597 86.4504 68.4512 87.293C70.3051 88.1361 87.8054 103.025 87.835 103.05C90.5135 104.834 95.3462 100.775 92.5547 97.8252L61.9619 73.6416L54.124 79.8779C50.7028 82.2456 42.6013 82.177 38.6162 79.8779C33.8833 76.3776 33.5033 71.211 35.498 68.9238L45.9482 58.9805L19.9062 41.4541ZM109.748 43.4766C109.754 41.9887 107.476 40.864 106.124 41.707L81.6826 58.3906H78.9014C69.7494 52.9479 63.5812 51.9761 57.5791 56.5371L40.6396 71.8721C37.7571 74.9053 45.8052 77.8038 51.0898 74.9062L58.9277 68.9238C61.4911 66.9994 62.8274 67.5146 65.1641 69.1758L93.3135 90.916C104.501 81.2895 109.874 76.1251 109.748 69.4287V43.4766Z" fill="#DAD9D3"/>
<path d="M158.644 127V21.3115H180.763V64.2314H228.37V21.3115H250.489V127H228.37V82.4688H180.763V127H158.644ZM281.989 128.245C266.242 128.245 255.622 118.357 255.622 104.515V104.368C255.622 90.0859 266.682 81.7363 286.164 80.4912L305.573 79.3193V74.4854C305.573 67.5273 301.032 63.2061 292.683 63.2061C284.699 63.2061 279.865 66.9414 278.84 71.9951L278.693 72.6543H259.138L259.211 71.7754C260.383 57.2734 272.834 46.873 293.562 46.873C313.85 46.873 326.96 57.3467 326.96 73.167V127H305.573V115.281H305.134C300.666 123.338 292.316 128.245 281.989 128.245ZM276.789 103.416C276.789 109.202 281.55 112.645 288.947 112.645C298.542 112.645 305.573 106.492 305.573 98.2891V92.6494L289.387 93.6748C281.11 94.1875 276.789 97.7031 276.789 103.27V103.416ZM334.803 127V48.4844H356.189V61.375H356.629C360.657 52.3662 368.714 46.873 380.579 46.873C397.864 46.873 407.679 57.9326 407.679 76.3164V127H386.292V80.7109C386.292 70.457 381.458 64.5977 371.863 64.5977C362.269 64.5977 356.189 71.6289 356.189 81.8828V127H334.803ZM444.306 128.611C424.53 128.611 412.372 113.23 412.372 87.7422V87.6689C412.372 62.1074 424.53 46.873 444.306 46.873C455.438 46.873 464.228 52.5859 468.476 62.1074H468.915V21.3115H490.302V127H468.915V113.597H468.476C464.301 122.898 455.658 128.611 444.306 128.611ZM451.483 110.887C461.884 110.887 468.988 101.951 468.988 87.7422V87.6689C468.988 73.5332 461.811 64.5977 451.483 64.5977C440.863 64.5977 434.125 73.3135 434.125 87.6689V87.7422C434.125 102.024 440.79 110.887 451.483 110.887ZM530.884 128.611C509.131 128.611 497.046 118.577 495.361 103.709L495.288 103.05H516.162L516.309 103.709C517.7 109.861 522.314 113.45 530.884 113.45C538.94 113.45 543.848 110.301 543.848 105.247V105.174C543.848 100.999 541.211 98.582 533.521 96.8975L520.19 94.1143C504.956 90.8916 497.266 83.2744 497.266 71.5557V71.4824C497.266 56.541 510.156 46.873 530.151 46.873C551.025 46.873 562.671 57.9326 563.184 71.7021V72.4346H543.481L543.408 71.8486C542.676 66.209 538.062 61.9609 530.151 61.9609C522.754 61.9609 518.14 65.2568 518.14 70.3105V70.3838C518.14 74.4121 520.85 77.0488 528.76 78.7334L542.09 81.5898C558.496 85.0322 565.234 91.4775 565.234 103.05V103.123C565.234 118.504 551.099 128.611 530.884 128.611ZM570.294 127V21.3115H591.681V62.0342H592.12C596.148 52.293 604.425 46.873 616.217 46.873C633.209 46.873 643.756 58.7383 643.756 77.708V127H622.369V82.1025C622.369 71.1162 616.949 64.5977 607.208 64.5977C597.76 64.5977 591.681 71.7754 591.681 82.0293V127H570.294ZM674.89 128.245C659.143 128.245 648.522 118.357 648.522 104.515V104.368C648.522 90.0859 659.582 81.7363 679.064 80.4912L698.474 79.3193V74.4854C698.474 67.5273 693.933 63.2061 685.583 63.2061C677.6 63.2061 672.766 66.9414 671.74 71.9951L671.594 72.6543H652.038L652.111 71.7754C653.283 57.2734 665.734 46.873 686.462 46.873C706.75 46.873 719.86 57.3467 719.86 73.167V127H698.474V115.281H698.034C693.566 123.338 685.217 128.245 674.89 128.245ZM669.689 103.416C669.689 109.202 674.45 112.645 681.848 112.645C691.442 112.645 698.474 106.492 698.474 98.2891V92.6494L682.287 93.6748C674.011 94.1875 669.689 97.7031 669.689 103.27V103.416ZM728.436 127V21.3115H749.822V79.9053H750.262L776.775 48.4844H801.019L771.355 82.249L802.483 127H777.801L755.315 94.9199L749.822 100.999V127H728.436ZM834.496 128.611C810.473 128.611 795.897 113.011 795.897 87.8887V87.8154C795.897 62.8398 810.619 46.873 833.617 46.873C856.615 46.873 871.044 62.4736 871.044 86.2041V92.7959H816.991C817.211 105.32 824.022 112.645 834.936 112.645C843.725 112.645 849.071 107.811 850.609 103.416L850.756 102.977H870.385L870.165 103.782C867.748 115.354 856.908 128.611 834.496 128.611ZM833.983 62.8398C825.194 62.8398 818.603 68.6992 817.211 79.3193H850.536C849.218 68.4795 842.846 62.8398 833.983 62.8398Z" fill="#DAD9D3"/>
</svg>
