<svg width="980" height="192" viewBox="0 0 980 192" fill="none" xmlns="http://www.w3.org/2000/svg">
<path d="M96 0C149.019 0 192 42.9807 192 96C192 149.02 149.019 192 96 192C42.9807 192 0 149.02 0 96C0 42.9807 42.9807 0 96 0ZM30.5759 46.7775C27.8033 45.1142 24.6032 46.4683 24.7516 50.4015C25.2316 61.4633 24.0515 67.4044 24.8804 88.971C26.3717 97.5243 28.7604 101.731 34.59 108.643C79.3499 147.931 101.59 167.39 106.176 168.049C114.266 169.224 117.475 162.816 114.851 159.378C104.971 150.437 97.947 145.229 86.5005 136.081C85.0701 132.871 87.9752 128.234 91.9365 130.646L123.135 155.495C127.967 159.008 133.706 152.801 130.254 148.378C120.297 138.649 111.136 133.103 99.5744 122.751C97.4715 116.72 102.293 115.892 105.141 117.186C107.989 118.481 134.869 141.35 134.915 141.389C139.029 144.129 146.452 137.894 142.164 133.364L95.1735 96.2175L83.1345 105.796C77.8795 109.433 65.4356 109.328 59.3145 105.796C52.0447 100.42 51.4611 92.4841 54.5249 88.971L70.5764 73.698L30.5759 46.7775ZM168.573 49.8841C168.582 47.5986 165.083 45.8711 163.006 47.166L125.464 72.792H121.193C107.135 64.432 97.6607 62.9393 88.4415 69.945L62.4224 93.4995C57.9949 98.1585 70.3568 102.611 78.4739 98.1599L90.5129 88.971C94.4503 86.0151 96.5029 86.8064 100.092 89.358L143.33 122.751C160.514 107.965 168.766 100.032 168.573 89.7465V49.8841Z" fill="#2563EB"/>
<path d="M245.854 149V43.3115H267.974V86.2314H315.581V43.3115H337.7V149H315.581V104.469H267.974V149H245.854ZM369.2 150.245C353.453 150.245 342.833 140.357 342.833 126.515V126.368C342.833 112.086 353.893 103.736 373.375 102.491L392.784 101.319V96.4854C392.784 89.5273 388.243 85.2061 379.894 85.2061C371.91 85.2061 367.076 88.9414 366.051 93.9951L365.904 94.6543H346.349L346.422 93.7754C347.594 79.2734 360.045 68.873 380.772 68.873C401.061 68.873 414.171 79.3467 414.171 95.167V149H392.784V137.281H392.345C387.877 145.338 379.527 150.245 369.2 150.245ZM364 125.416C364 131.202 368.761 134.645 376.158 134.645C385.753 134.645 392.784 128.492 392.784 120.289V114.649L376.598 115.675C368.321 116.188 364 119.703 364 125.27V125.416ZM422.014 149V70.4844H443.4V83.375H443.84C447.868 74.3662 455.925 68.873 467.79 68.873C485.075 68.873 494.89 79.9326 494.89 98.3164V149H473.503V102.711C473.503 92.457 468.669 86.5977 459.074 86.5977C449.479 86.5977 443.4 93.6289 443.4 103.883V149H422.014ZM531.517 150.611C511.741 150.611 499.583 135.23 499.583 109.742V109.669C499.583 84.1074 511.741 68.873 531.517 68.873C542.649 68.873 551.438 74.5859 555.687 84.1074H556.126V43.3115H577.513V149H556.126V135.597H555.687C551.512 144.898 542.869 150.611 531.517 150.611ZM538.694 132.887C549.095 132.887 556.199 123.951 556.199 109.742V109.669C556.199 95.5332 549.021 86.5977 538.694 86.5977C528.074 86.5977 521.336 95.3135 521.336 109.669V109.742C521.336 124.024 528.001 132.887 538.694 132.887ZM626.225 150.831C601.103 150.831 584.916 139.332 583.671 119.85L583.598 118.678H604.472L604.618 119.483C606.01 127.687 614.726 132.813 626.811 132.813C639.042 132.813 646.732 127.467 646.732 119.41V119.337C646.732 112.159 641.532 108.57 628.422 105.86L617.289 103.663C596.415 99.4883 585.868 89.5273 585.868 73.6338V73.5605C585.868 54.2246 602.714 41.4805 626.151 41.4805C650.614 41.4805 665.629 53.7119 666.654 72.2422L666.728 73.6338H645.854L645.78 72.7549C644.682 64.4785 637.064 59.4248 626.151 59.4248C614.799 59.498 607.987 64.6982 607.987 72.2422V72.3154C607.987 78.9805 613.407 82.8623 625.565 85.2793L636.771 87.5498C658.891 91.9443 668.852 100.953 668.852 117.579V117.652C668.852 137.94 652.885 150.831 626.225 150.831ZM675.083 149V43.3115H696.47V84.0342H696.909C700.938 74.293 709.214 68.873 721.006 68.873C737.998 68.873 748.545 80.7383 748.545 99.708V149H727.158V104.103C727.158 93.1162 721.738 86.5977 711.997 86.5977C702.549 86.5977 696.47 93.7754 696.47 104.029V149H675.083ZM779.679 150.245C763.932 150.245 753.312 140.357 753.312 126.515V126.368C753.312 112.086 764.371 103.736 783.854 102.491L803.263 101.319V96.4854C803.263 89.5273 798.722 85.2061 790.372 85.2061C782.389 85.2061 777.555 88.9414 776.529 93.9951L776.383 94.6543H756.827L756.9 93.7754C758.072 79.2734 770.523 68.873 791.251 68.873C811.539 68.873 824.649 79.3467 824.649 95.167V149H803.263V137.281H802.823C798.355 145.338 790.006 150.245 779.679 150.245ZM774.479 125.416C774.479 131.202 779.239 134.645 786.637 134.645C796.231 134.645 803.263 128.492 803.263 120.289V114.649L787.076 115.675C778.8 116.188 774.479 119.703 774.479 125.27V125.416ZM833.225 149V43.3115H854.611V101.905H855.051L881.564 70.4844H905.808L876.145 104.249L907.272 149H882.59L860.104 116.92L854.611 122.999V149H833.225ZM939.285 150.611C915.262 150.611 900.687 135.011 900.687 109.889V109.815C900.687 84.8398 915.408 68.873 938.406 68.873C961.404 68.873 975.833 84.4736 975.833 108.204V114.796H921.78C922 127.32 928.812 134.645 939.725 134.645C948.514 134.645 953.86 129.811 955.398 125.416L955.545 124.977H975.174L974.954 125.782C972.537 137.354 961.697 150.611 939.285 150.611ZM938.772 84.8398C929.983 84.8398 923.392 90.6992 922 101.319H955.325C954.007 90.4795 947.635 84.8398 938.772 84.8398Z" fill="black"/>
</svg>
