<svg width="192" height="192" viewBox="0 0 192 192" fill="none" xmlns="http://www.w3.org/2000/svg">
<path d="M96 0C149.019 0 192 42.9807 192 96C192 149.02 149.019 192 96 192C42.9807 192 0 149.02 0 96C0 42.9807 42.9807 0 96 0ZM30.5759 46.7775C27.8033 45.1142 24.6032 46.4683 24.7516 50.4015C25.2316 61.4633 24.0515 67.4044 24.8804 88.971C26.3717 97.5243 28.7604 101.731 34.59 108.643C79.3499 147.931 101.59 167.39 106.176 168.049C114.266 169.224 117.475 162.816 114.851 159.378C104.971 150.437 97.947 145.229 86.5005 136.081C85.0701 132.871 87.9752 128.234 91.9365 130.646L123.135 155.495C127.967 159.008 133.706 152.801 130.254 148.378C120.297 138.649 111.136 133.103 99.5744 122.751C97.4715 116.72 102.293 115.892 105.141 117.186C107.989 118.481 134.869 141.35 134.915 141.389C139.029 144.129 146.452 137.894 142.164 133.364L95.1735 96.2175L83.1345 105.796C77.8795 109.433 65.4356 109.328 59.3145 105.796C52.0447 100.42 51.4611 92.4841 54.5249 88.971L70.5764 73.698L30.5759 46.7775ZM168.573 49.8841C168.582 47.5986 165.083 45.8711 163.006 47.166L125.464 72.792H121.193C107.135 64.432 97.6607 62.9393 88.4415 69.945L62.4224 93.4995C57.9949 98.1585 70.3568 102.611 78.4739 98.1599L90.5129 88.971C94.4503 86.0151 96.5029 86.8064 100.092 89.358L143.33 122.751C160.514 107.965 168.766 100.032 168.573 89.7465V49.8841Z" fill="black"/>
</svg>
