<svg width="500" height="500" viewBox="0 0 500 500" fill="none" xmlns="http://www.w3.org/2000/svg">
<path d="M250 0C388.071 0 500 111.929 500 250C500 388.071 388.071 500 250 500C111.929 500 0 388.071 0 250C0 111.929 111.929 0 250 0ZM89.584 134.695C82.8446 130.65 75.0652 133.944 75.4258 143.51C76.5929 170.415 73.725 184.863 75.7402 237.317C79.3649 258.122 85.1685 268.354 99.3379 285.166C208.133 380.722 262.188 428.051 273.334 429.654C292.998 432.513 300.794 416.927 294.415 408.563C270.402 386.82 253.33 374.15 225.509 351.901C222.032 344.094 229.095 332.816 238.724 338.681L314.553 399.12C326.297 407.663 340.248 392.569 331.857 381.807C307.655 358.145 285.39 344.657 257.288 319.478C252.177 304.81 263.895 302.795 270.817 305.942C277.733 309.088 343.038 364.683 343.185 364.808C353.184 371.474 371.226 356.313 360.805 345.291L246.59 254.946L217.328 278.24C204.555 287.085 174.312 286.829 159.435 278.24C141.764 265.163 140.345 245.861 147.793 237.317L186.809 200.172L89.584 134.695ZM424.992 142.25C425.015 136.692 416.509 132.49 411.462 135.64L320.217 197.969H309.833C275.665 177.635 252.637 174.004 230.229 191.043L166.986 248.335C156.225 259.667 186.273 270.492 206.002 259.667L235.264 237.317C244.834 230.128 249.823 232.055 258.547 238.262L363.637 319.478C405.402 283.514 425.463 264.223 424.992 239.206V142.25Z" fill="#DAD9D3"/>
</svg>
